<?xml version="1.0" standalone="no"?>
<!DOCTYPE svg PUBLIC "-//W3C//DTD SVG 20010904//EN"
 "http://www.w3.org/TR/2001/REC-SVG-20010904/DTD/svg10.dtd">
<svg version="1.0" xmlns="http://www.w3.org/2000/svg"
 width="700.000000pt" height="700.000000pt" viewBox="0 0 700.000000 700.000000"
 preserveAspectRatio="xMidYMid meet">
<metadata>
Created by potrace 1.14, written by Peter Selinger 2001-2017
</metadata>
<g transform="translate(0.000000,700.000000) scale(0.100000,-0.100000)"
fill="#000000" stroke="none">
<path d="M2927 5828 c-15 -9 -17 -4658 -2 -4659 6 -1 268 -2 582 -2 375 -1
574 1 576 8 2 9 1 4642 -2 4655 -2 8 -1141 6 -1154 -2z"/>
<path d="M4668 4360 c-3 -13 -2 -3115 1 -3175 1 -20 8 -20 581 -20 508 0 580
2 581 15 0 8 2 729 2 1603 1 1052 -1 1587 -8 1588 -5 1 -267 2 -582 3 -502 1
-572 -1 -575 -14z"/>
<path d="M1169 3498 c-5 -15 -3 -2307 2 -2318 6 -13 80 -15 578 -14 314 0 574
4 578 7 4 4 7 529 7 1167 l1 1160 -582 0 c-321 0 -583 -1 -584 -2z"/>
</g>
</svg>
